<svg width="21" height="16" xmlns="http://www.w3.org/2000/svg" xmlns:xlink="http://www.w3.org/1999/xlink" overflow="hidden"><defs><clipPath id="clip0"><rect x="417" y="94" width="21" height="16"/></clipPath></defs><g clip-path="url(#clip0)" transform="translate(-417 -94)"><path d="M418.5 95.8334C418.5 95.6493 418.649 95.5001 418.833 95.5001L437.167 95.5001C437.351 95.5001 437.5 95.6493 437.5 95.8334L437.5 97.1667C437.5 97.3508 437.351 97.5001 437.167 97.5001L418.833 97.5001C418.649 97.5001 418.5 97.3508 418.5 97.1667Z" stroke="#21917A" stroke-width="1.33333" stroke-miterlimit="8" fill="#21917A" fill-rule="evenodd"/><path d="M418.5 101.833C418.5 101.649 418.649 101.5 418.833 101.5L437.167 101.5C437.351 101.5 437.5 101.649 437.5 101.833L437.5 103.167C437.5 103.351 437.351 103.5 437.167 103.5L418.833 103.5C418.649 103.5 418.5 103.351 418.5 103.167Z" stroke="#21917A" stroke-width="1.33333" stroke-miterlimit="8" fill="#21917A" fill-rule="evenodd"/><path d="M418.5 107.833C418.5 107.649 418.649 107.5 418.833 107.5L437.167 107.5C437.351 107.5 437.5 107.649 437.5 107.833L437.5 109.167C437.5 109.351 437.351 109.5 437.167 109.5L418.833 109.5C418.649 109.5 418.5 109.351 418.5 109.167Z" stroke="#21917A" stroke-width="1.33333" stroke-miterlimit="8" fill="#21917A" fill-rule="evenodd"/></g></svg>