<svg width="21" height="18" xmlns="http://www.w3.org/2000/svg" xmlns:xlink="http://www.w3.org/1999/xlink" overflow="hidden"><defs><clipPath id="clip0"><rect x="300" y="189" width="21" height="18"/></clipPath></defs><g clip-path="url(#clip0)" transform="translate(-300 -189)"><path d="M301.5 190.833C301.5 190.649 301.649 190.5 301.833 190.5L319.167 190.5C319.351 190.5 319.5 190.649 319.5 190.833L319.5 192.167C319.5 192.351 319.351 192.5 319.167 192.5L301.833 192.5C301.649 192.5 301.5 192.351 301.5 192.167Z" stroke="#ED7D31" stroke-width="1.33333" stroke-miterlimit="8" fill="#ED7D31" fill-rule="evenodd"/><path d="M301.5 197.833C301.5 197.649 301.649 197.5 301.833 197.5L319.167 197.5C319.351 197.5 319.5 197.649 319.5 197.833L319.5 199.167C319.5 199.351 319.351 199.5 319.167 199.5L301.833 199.5C301.649 199.5 301.5 199.351 301.5 199.167Z" stroke="#ED7D31" stroke-width="1.33333" stroke-miterlimit="8" fill="#ED7D31" fill-rule="evenodd"/><path d="M301.5 204.833C301.5 204.649 301.649 204.5 301.833 204.5L319.167 204.5C319.351 204.5 319.5 204.649 319.5 204.833L319.5 206.167C319.5 206.351 319.351 206.5 319.167 206.5L301.833 206.5C301.649 206.5 301.5 206.351 301.5 206.167Z" stroke="#ED7D31" stroke-width="1.33333" stroke-miterlimit="8" fill="#ED7D31" fill-rule="evenodd"/></g></svg>